# xmcd
#
# Track frame offsets: 
#        150
#        12964
#        24308
#        38116
#        52222
#        66255
#        78119
#        92323
#        106280
#        120021
#        131740
#        145011
#        159134
#        171655
#        186152
#        200004
#        212951
#        226623
#        241386
#        255228
#
# Disc length: 3595 seconds
#
# Revision: 0
# Processed by: cddbd v1.5.1PL0 Copyright (c) Steve Scherf et al.
# Submitted via: ExactAudioCopy v0.95a4
#
DISCID=000e0914
DTITLE=Ella Fitzgerald - Ella - Disc 1
DYEAR=2004
DGENRE=Blues
TTITLE0=My Favourite Song
TTITLE1=Flying Home
TTITLE2=In My Dreams
TTITLE3=Crying My Heart Out For You
TTITLE4=Wacky Dust
TTITLE5=A-Tisket A-Tasket
TTITLE6=Lover's Gold
TTITLE7=T'Aint What You Do (It's The Way That You Do It)
TTITLE8=You Won't Be Satisfied (Until You Break My Heart)
TTITLE9=If Dreams Come True
TTITLE10=Got A Pebble In My Shoe
TTITLE11=Black Coffee
TTITLE12=Stone Cold Dead In The Market
TTITLE13=Holiday In Harlem
TTITLE14=I Got The Spring Fever Blues
TTITLE15=Sugar Blues
TTITLE16=(If You Can't Sing It) You'll Have To Swing It
TTITLE17=Stairway To The Stars
TTITLE18=If It Weren't For You
TTITLE19=The Dipsy Doodle
EXTD=
EXTT0=
EXTT1=
EXTT2=
EXTT3=
EXTT4=
EXTT5=
EXTT6=
EXTT7=
EXTT8=
EXTT9=
EXTT10=
EXTT11=
EXTT12=
EXTT13=
EXTT14=
EXTT15=
EXTT16=
EXTT17=
EXTT18=
EXTT19=
PLAYORDER=
